<?xml version="1.0" encoding="utf-8"?>
<!-- Generator: Adobe Illustrator 24.3.0, SVG Export Plug-In . SVG Version: 6.00 Build 0)  -->
<svg version="1.1" id="Layer_1" xmlns="http://www.w3.org/2000/svg" xmlns:xlink="http://www.w3.org/1999/xlink" x="0px" y="0px"
	 viewBox="0 0 45.48 45.48" style="enable-background:new 0 0 45.48 45.48;" xml:space="preserve">
<path d="M6.65,6.65C11.08,2.22,16.44,0,22.74,0c6.3,0,11.66,2.22,16.09,6.65c4.43,4.43,6.65,9.8,6.65,16.09
	c0,6.3-2.22,11.66-6.65,16.09c-4.43,4.43-9.8,6.65-16.09,6.65c-6.3,0-11.66-2.22-16.09-6.65C2.21,34.4,0,29.04,0,22.74
	C0,16.44,2.21,11.08,6.65,6.65z M22.74,40.35c5.44,0,9.9-2.08,13.39-6.24c-0.86-1.65-2.08-2.98-3.67-3.99
	c-1.59-1.01-3.36-1.51-5.32-1.51c-0.18,0-0.4,0.03-0.64,0.09c-1.28,0.43-2.54,0.64-3.76,0.64c-1.22,0-2.48-0.21-3.76-0.64
	c-0.25-0.06-0.46-0.09-0.64-0.09c-1.96,0-3.73,0.5-5.32,1.51c-1.59,1.01-2.81,2.34-3.67,3.99C12.84,38.27,17.3,40.35,22.74,40.35z
	 M28.43,11.19C26.84,9.6,24.94,8.8,22.74,8.8s-4.1,0.8-5.69,2.38c-1.59,1.59-2.38,3.48-2.38,5.69s0.79,4.1,2.38,5.69
	c1.59,1.59,3.48,2.38,5.69,2.38s4.09-0.79,5.69-2.38c1.59-1.59,2.38-3.48,2.38-5.69S30.01,12.78,28.43,11.19z"/>
</svg>
