<?xml version="1.0" encoding="utf-8"?>
<!-- Generator: Adobe Illustrator 24.2.3, SVG Export Plug-In . SVG Version: 6.00 Build 0)  -->
<svg version="1.1" id="Layer_1" xmlns="http://www.w3.org/2000/svg" xmlns:xlink="http://www.w3.org/1999/xlink" x="0px" y="0px"
	 viewBox="0 0 55 55" style="enable-background:new 0 0 55 55;" xml:space="preserve">
<path id="AI_mappointer_5_" transform="translate(11 113)" d="M33.62-95.7c0-9.45-7.66-17.12-17.12-17.12
	c-9.45,0-17.12,7.66-17.12,17.12c0.02,2.75,0.67,5.46,1.91,7.92l0,0l12.75,28.04c0.44,0.92,1.35,1.52,2.37,1.55
	c1.02-0.01,1.95-0.61,2.37-1.55l12.75-28.04l0,0C32.9-90.19,33.63-92.92,33.62-95.7z M6.85-105.44c5.33-5.31,13.96-5.3,19.27,0.03
	s5.3,13.96-0.03,19.27s-13.96,5.3-19.27-0.03c-2.55-2.55-3.98-6.01-3.98-9.62C2.86-99.41,4.3-102.87,6.85-105.44z"/>
</svg>
