<?xml version="1.0" encoding="utf-8"?>
<!-- Generator: Adobe Illustrator 24.2.3, SVG Export Plug-In . SVG Version: 6.00 Build 0)  -->
<svg version="1.1" id="Layer_1" xmlns="http://www.w3.org/2000/svg" xmlns:xlink="http://www.w3.org/1999/xlink" x="0px" y="0px"
	 viewBox="0 0 55 55" style="enable-background:new 0 0 55 55;" xml:space="preserve">
<path id="AI_user_5_" transform="translate(220 222)" d="M-192.5-187.67L-192.5-187.67c7.53,0.01,13.65-6.09,13.66-13.62
	c0-0.01,0-0.02,0-0.04v-6.83c0.01-7.53-6.09-13.65-13.62-13.66c-0.01,0-0.02,0-0.04,0l0,0c-7.53-0.01-13.65,6.09-13.66,13.62
	c0,0.01,0,0.02,0,0.04v6.83c-0.01,7.53,6.09,13.65,13.62,13.66C-192.52-187.67-192.51-187.67-192.5-187.67z M-202.7-208.16
	c0.02-2.73,1.1-5.34,3-7.28c1.93-1.94,4.55-3.02,7.28-3c2.73,0,5.35,1.08,7.28,3c1.94,1.93,3.02,4.55,3,7.28v6.83
	c-0.02,2.73-1.1,5.34-3,7.28c-1.93,1.94-4.55,3.02-7.28,3c-2.73,0-5.35-1.08-7.28-3c-1.94-1.93-3.02-4.55-3-7.28V-208.16z
	 M-185.67-184.48v10.47l-14.11-10.47c-14.84,2-20.03,9.74-20.03,9.74v4.1c0,1.91,1.55,3.46,3.46,3.46l0,0h48.8
	c1.3-0.02,2.34-1.07,2.37-2.37v-5.1C-165.19-174.65-170.47-182.57-185.67-184.48z"/>
</svg>
