<?xml version="1.0" encoding="utf-8"?>
<!-- Generator: Adobe Illustrator 24.3.0, SVG Export Plug-In . SVG Version: 6.00 Build 0)  -->
<svg version="1.1" id="Layer_1" xmlns="http://www.w3.org/2000/svg" xmlns:xlink="http://www.w3.org/1999/xlink" x="0px" y="0px"
	 viewBox="0 0 82.39 82.23" style="enable-background:new 0 0 82.39 82.23;" xml:space="preserve">
<path d="M48.83,0.69c-2.57-1.2-5.51-0.82-7.69,0.99L20.81,18.63H7.23C3.24,18.63,0,21.87,0,25.86v30.51c0,3.98,3.24,7.23,7.23,7.23
	h13.58l20.34,16.95c2.18,1.82,5.13,2.19,7.69,0.99c2.57-1.2,4.16-3.71,4.16-6.54V7.24C53,4.4,51.4,1.9,48.83,0.69z M4.82,56.37
	V25.86c0-1.33,1.08-2.41,2.41-2.41h12.04v35.36H7.23C5.9,58.81,4.82,57.7,4.82,56.37z M48.18,74.99c0,1.42-1.06,2.03-1.39,2.18
	c-0.33,0.15-1.47,0.58-2.56-0.33L24.09,60.06V22.17L44.23,5.39c1.09-0.91,2.24-0.48,2.56-0.33c0.33,0.15,1.39,0.76,1.39,2.18V74.99z
	 M60.43,49.78c-0.74,1.11-2.23,1.41-3.34,0.67c-1.11-0.74-1.41-2.23-0.67-3.34c2.49-3.74,2.49-8.57,0-12.3
	c-0.74-1.11-0.44-2.6,0.67-3.34c1.11-0.74,2.6-0.44,3.34,0.67C64,37.49,64,44.42,60.43,49.78z M76.46,60.47l-1.08,1.62
	c-0.74,1.11-2.23,1.41-3.34,0.67c-1.11-0.74-1.41-2.23-0.67-3.34l1.08-1.62c6.82-10.23,6.82-23.45,0-33.68l-1.08-1.62
	c-0.74-1.11-0.44-2.6,0.67-3.34c1.11-0.74,2.6-0.44,3.34,0.67l1.08,1.62C84.37,33.29,84.37,48.61,76.46,60.47z M68.45,55.12
	l-1.08,1.62c-0.74,1.11-2.23,1.41-3.34,0.67c-1.11-0.74-1.41-2.23-0.67-3.34l1.08-1.62c4.66-6.98,4.66-16.01,0-22.99l-1.08-1.62
	c-0.74-1.11-0.44-2.6,0.67-3.34c1.11-0.74,2.6-0.44,3.34,0.67l1.08,1.62C74.19,35.39,74.19,46.51,68.45,55.12z"/>
</svg>
