<?xml version="1.0" encoding="utf-8"?>
<!-- Generator: Adobe Illustrator 24.2.3, SVG Export Plug-In . SVG Version: 6.00 Build 0)  -->
<svg version="1.1" id="Layer_1" xmlns="http://www.w3.org/2000/svg" xmlns:xlink="http://www.w3.org/1999/xlink" x="0px" y="0px"
	 viewBox="0 0 55 55" style="enable-background:new 0 0 55 55;" xml:space="preserve">
<path id="AI_itinerary_4_" transform="translate(218 1)" d="M-173.88,25.78l-13.84-1.82l-2-18.85c0-0.45-0.37-0.82-0.82-0.82
	c-0.45,0-0.82,0.37-0.82,0.82l-2.19,21.12v0.36l0,0c-0.02,1.64,1.3,2.99,2.94,3c0.02,0,0.04,0,0.06,0l0,0
	c0.22,0.01,0.43-0.02,0.64-0.09l16.02-2.09c0.45,0,0.82-0.37,0.82-0.82C-173.07,26.14-173.43,25.78-173.88,25.78z M-214.49,29.69
	c-0.14-0.93-1-1.57-1.93-1.43c-0.91,0.14-1.55,0.97-1.44,1.89c0.63,4.73,2.48,9.22,5.37,13.02c0.32,0.42,0.83,0.66,1.37,0.64
	c0.37,0.02,0.73-0.11,1-0.36c0.74-0.56,0.9-1.61,0.36-2.37C-212.32,37.77-213.96,33.84-214.49,29.69z M-206.21,7.66
	c0.37,0.02,0.73-0.11,1-0.36c3.32-2.53,7.24-4.17,11.38-4.73c0.93-0.14,1.57-1,1.43-1.93c-0.14-0.91-0.97-1.55-1.89-1.44
	c-4.73,0.63-9.22,2.48-13.02,5.37c-0.74,0.56-0.9,1.61-0.36,2.37C-207.32,7.4-206.78,7.67-206.21,7.66z M-210.03,9.48
	c-0.72-0.56-1.75-0.43-2.31,0.29c-0.02,0.03-0.04,0.05-0.06,0.08c-2.89,3.8-4.74,8.29-5.37,13.02c-0.11,0.93,0.54,1.77,1.46,1.91
	h0.27c0.84-0.03,1.56-0.63,1.73-1.46c0.55-4.14,2.18-8.07,4.73-11.38C-209.11,11.12-209.3,10.08-210.03,9.48z M-187.36,2.56
	c4.14,0.55,8.07,2.18,11.38,4.73c0.27,0.25,0.63,0.38,1,0.36c0.52-0.02,1.02-0.25,1.37-0.64c0.56-0.72,0.43-1.75-0.29-2.31
	c-0.03-0.02-0.05-0.04-0.08-0.06c-3.8-2.89-8.29-4.74-13.02-5.37c-0.93-0.11-1.77,0.54-1.91,1.46
	C-188.93,1.65-188.26,2.44-187.36,2.56z M-164.69,28.24c-0.93-0.11-1.77,0.54-1.91,1.46c-0.55,4.14-2.18,8.07-4.73,11.38
	c-0.56,0.72-0.43,1.75,0.29,2.31c0.03,0.02,0.05,0.04,0.08,0.06c0.27,0.25,0.63,0.38,1,0.36c0.52-0.02,1.02-0.25,1.37-0.64
	c2.89-3.8,4.74-8.29,5.37-13.02C-163.15,29.23-163.78,28.4-164.69,28.24z M-193.73,50.45c-4.14-0.55-8.07-2.18-11.38-4.73
	c-0.75-0.55-1.81-0.39-2.37,0.36c-0.55,0.75-0.39,1.81,0.36,2.37c3.8,2.89,8.29,4.74,13.02,5.37h0.27c0.84-0.03,1.56-0.63,1.73-1.46
	C-192.11,51.41-192.8,50.61-193.73,50.45z M-166.6,23.32c0.12,0.86,0.87,1.48,1.73,1.46h0.27c0.92-0.14,1.57-0.99,1.46-1.91
	c-0.63-4.73-2.48-9.22-5.37-13.02c-0.55-0.75-1.61-0.92-2.37-0.36c-0.75,0.55-0.92,1.61-0.36,2.37l0,0
	C-168.76,15.22-167.16,19.17-166.6,23.32z M-175.89,45.72c-3.32,2.53-7.24,4.17-11.38,4.73c-0.92,0.14-1.57,0.99-1.46,1.91
	c0.12,0.86,0.87,1.48,1.73,1.46h0.27c4.73-0.63,9.22-2.48,13.02-5.37c0.74-0.56,0.9-1.61,0.36-2.37c-0.59-0.8-1.71-0.98-2.51-0.39
	C-175.86,45.7-175.88,45.71-175.89,45.72z"/>
</svg>
