<?xml version="1.0" encoding="utf-8"?>
<!-- Generator: Adobe Illustrator 24.3.0, SVG Export Plug-In . SVG Version: 6.00 Build 0)  -->
<svg version="1.1" id="Layer_1" xmlns="http://www.w3.org/2000/svg" xmlns:xlink="http://www.w3.org/1999/xlink" x="0px" y="0px"
	 viewBox="0 0 92.1 72.08" style="enable-background:new 0 0 92.1 72.08;" xml:space="preserve">
<path d="M46.07,17.51c-12.14,0-23.55,4.73-32.14,13.31c-2.07,2.07-2.07,5.43,0,7.5c2.07,2.07,5.43,2.07,7.5,0
	c6.58-6.58,15.33-10.2,24.63-10.2c9.3,0,18.05,3.62,24.63,10.2c1.04,1.04,2.4,1.55,3.75,1.55c1.36,0,2.72-0.52,3.75-1.55
	c2.07-2.07,2.07-5.43,0-7.5C69.62,22.24,58.21,17.51,46.07,17.51L46.07,17.51z M46.07,17.51 M90.59,18.44C78.7,6.55,62.89,0,46.07,0
	C29.25,0,13.44,6.55,1.55,18.44c-2.07,2.07-2.07,5.43,0,7.5c1.04,1.04,2.39,1.55,3.75,1.55c1.36,0,2.72-0.52,3.75-1.55
	c9.89-9.89,23.03-15.33,37.01-15.33c13.98,0,27.13,5.44,37.01,15.33c2.07,2.07,5.43,2.07,7.5,0C92.66,23.88,92.66,20.52,90.59,18.44
	L90.59,18.44z M90.59,18.44 M46.07,34.99c-7.47,0-14.5,2.91-19.78,8.19c-2.07,2.07-2.07,5.43,0,7.5c2.07,2.07,5.43,2.07,7.5,0
	c3.28-3.28,7.63-5.08,12.27-5.08c4.64,0,9,1.81,12.27,5.08c1.04,1.04,2.4,1.55,3.75,1.55c1.36,0,2.71-0.52,3.75-1.55
	c2.07-2.07,2.07-5.43,0-7.5C60.57,37.9,53.54,34.99,46.07,34.99L46.07,34.99z M46.07,34.99 M39.66,56.55
	c-3.54,3.54-3.54,9.28,0,12.82c3.54,3.54,9.28,3.54,12.82,0c3.54-3.54,3.54-9.28,0-12.82C48.94,53.01,43.2,53.01,39.66,56.55
	L39.66,56.55z M39.66,56.55"/>
</svg>
