<?xml version="1.0" encoding="utf-8"?>
<!-- Generator: Adobe Illustrator 24.3.0, SVG Export Plug-In . SVG Version: 6.00 Build 0)  -->
<svg version="1.1" id="Layer_1" xmlns="http://www.w3.org/2000/svg" xmlns:xlink="http://www.w3.org/1999/xlink" x="0px" y="0px"
	 viewBox="0 0 56.14 56.14" style="enable-background:new 0 0 56.14 56.14;" xml:space="preserve">
<path d="M8.77,42.98h23.11l9.24,6.37v-6.37h6.25V21.05H8.77V42.98z M13.16,25.44h29.82v13.16h-6.25V41l-3.48-2.4H13.16V25.44z
	 M49.56,0H6.58C2.95,0,0,2.95,0,6.58v42.98c0,3.63,2.95,6.58,6.58,6.58h42.98c3.63,0,6.58-2.95,6.58-6.58V6.58
	C56.14,2.95,53.19,0,49.56,0L49.56,0z M51.75,49.56c0,1.21-0.98,2.19-2.19,2.19H6.58c-1.21,0-2.19-0.98-2.19-2.19V6.58
	c0-1.21,0.98-2.19,2.19-2.19h42.98c1.21,0,2.19,0.98,2.19,2.19V49.56z M25.77,29.82h4.39v4.39h-4.39V29.82z M17.21,29.82h4.39v4.39
	h-4.39V29.82z M38.92,34.32h-4.39v-4.39h4.39V34.32z M38.92,34.32"/>
</svg>
