<?xml version="1.0" encoding="utf-8"?>
<!-- Generator: Adobe Illustrator 24.3.0, SVG Export Plug-In . SVG Version: 6.00 Build 0)  -->
<svg version="1.1" id="Layer_1" xmlns="http://www.w3.org/2000/svg" xmlns:xlink="http://www.w3.org/1999/xlink" x="0px" y="0px"
	 viewBox="0 0 81.12 81.11" style="enable-background:new 0 0 81.12 81.11;" xml:space="preserve">
<path d="M70.43,13.23c-0.05-0.1-0.11-0.2-0.17-0.3c-0.09-0.09-0.19-0.16-0.3-0.23C62.33,4.6,51.69,0,40.55,0s-21.77,4.6-29.4,12.71
	c-0.11,0.06-0.21,0.14-0.3,0.23c-0.07,0.09-0.12,0.19-0.17,0.3c-14.23,15.44-14.23,39.21,0,54.65c0.05,0.1,0.11,0.2,0.17,0.3
	c0.09,0.08,0.19,0.16,0.3,0.23c7.63,8.12,18.28,12.72,29.42,12.71c11.14,0,21.79-4.61,29.41-12.73c0.1-0.06,0.2-0.13,0.28-0.2
	c0.07-0.09,0.12-0.19,0.17-0.3C84.67,52.45,84.67,28.67,70.43,13.23L70.43,13.23z M68.48,64.01c-2.7-2.16-5.66-3.98-8.81-5.4
	c1.3-5.24,2.02-10.62,2.12-16.02h15.16C76.53,50.45,73.55,57.97,68.48,64.01z M4.15,42.58h15.16c0.11,5.4,0.82,10.78,2.12,16.02
	c-3.15,1.42-6.11,3.24-8.81,5.4C7.55,57.97,4.57,50.45,4.15,42.58z M12.62,17.1c2.7,2.16,5.66,3.98,8.81,5.4
	c-1.3,5.24-2.02,10.62-2.12,16.02H4.15C4.57,30.65,7.55,23.13,12.62,17.1z M38.52,22.38c-4.14-0.18-8.22-0.96-12.14-2.31
	c2.77-8.46,7.17-14.44,12.14-15.74V22.38z M38.52,26.44v12.09H23.36c0.12-4.89,0.75-9.76,1.9-14.51
	C29.55,25.46,34.01,26.27,38.52,26.44L38.52,26.44z M38.52,42.58v12.08c-4.51,0.17-8.98,0.99-13.25,2.43
	c-1.15-4.76-1.79-9.62-1.9-14.52H38.52z M38.52,58.72v18.05c-4.97-1.3-9.37-7.28-12.14-15.74C30.3,59.68,34.39,58.91,38.52,58.72z
	 M42.58,58.72c4.14,0.18,8.22,0.96,12.14,2.31c-2.77,8.46-7.17,14.44-12.14,15.74V58.72z M42.58,54.67V42.58h15.16
	c-0.12,4.89-0.75,9.76-1.9,14.51C51.55,55.65,47.09,54.83,42.58,54.67L42.58,54.67z M42.58,38.53V26.44
	c4.51-0.17,8.98-0.99,13.25-2.43c1.15,4.76,1.79,9.62,1.9,14.52H42.58z M42.58,22.38V4.34c4.97,1.3,9.37,7.28,12.14,15.74
	C50.8,21.42,46.71,22.2,42.58,22.38z M51.61,5.78c5.26,1.69,10.07,4.55,14.07,8.37c-2.21,1.74-4.62,3.22-7.16,4.41
	C57.08,13.88,54.73,9.54,51.61,5.78z M22.58,18.55c-2.55-1.19-4.95-2.67-7.16-4.41c4-3.82,8.81-6.68,14.07-8.37
	C26.37,9.54,24.02,13.88,22.58,18.55L22.58,18.55z M22.58,62.54c1.44,4.67,3.79,9.01,6.9,12.78c-5.26-1.69-10.07-4.55-14.07-8.37
	C17.63,65.21,20.04,63.74,22.58,62.54L22.58,62.54z M58.52,62.54c2.55,1.19,4.95,2.67,7.16,4.41c-4,3.82-8.81,6.68-14.07,8.37
	C54.73,71.56,57.08,67.22,58.52,62.54L58.52,62.54z M61.79,38.53c-0.11-5.4-0.82-10.78-2.12-16.02c3.15-1.42,6.11-3.24,8.81-5.4
	c5.07,6.03,8.05,13.55,8.47,21.42H61.79z"/>
</svg>
