<?xml version="1.0" encoding="utf-8"?>
<!-- Generator: Adobe Illustrator 24.3.0, SVG Export Plug-In . SVG Version: 6.00 Build 0)  -->
<svg version="1.1" id="Layer_1" xmlns="http://www.w3.org/2000/svg" xmlns:xlink="http://www.w3.org/1999/xlink" x="0px" y="0px"
	 viewBox="0 0 58 51.29" style="enable-background:new 0 0 58 51.29;" xml:space="preserve">
<path d="M31.67,0.45c-1.09-0.62-2.37-0.59-3.45,0.05c-0.05,0.03-0.1,0.07-0.14,0.1L12.97,13.38H1.12C0.5,13.38,0,13.88,0,14.5v21.18
	c0,0.3,0.12,0.58,0.33,0.79c0.21,0.21,0.49,0.33,0.79,0.33l11.83-0.01l15.1,13.87c0.06,0.05,0.12,0.09,0.18,0.13
	c0.55,0.33,1.16,0.49,1.76,0.49c0.58,0,1.15-0.15,1.68-0.45c1.11-0.63,1.78-1.77,1.78-3.07V3.52C33.45,2.23,32.78,1.08,31.67,0.45
	L31.67,0.45z M31.21,47.77c0,0.48-0.24,0.9-0.64,1.13c-0.18,0.1-0.61,0.28-1.12,0.03L14.49,35.19v-5.08c0-0.61-0.49-1.12-1.11-1.12
	c-0.62,0-1.12,0.5-1.12,1.12v4.45L2.23,34.56V15.61h10.03v4.46c0,0.61,0.49,1.12,1.12,1.12c0.61,0,1.11-0.5,1.11-1.12v-5.06
	L29.44,2.37c0.51-0.27,0.96-0.08,1.13,0.02c0.4,0.23,0.64,0.65,0.64,1.13V47.77z M31.21,47.77 M43.26,4.52
	c-0.58-0.2-1.22,0.12-1.42,0.7c-0.2,0.58,0.11,1.21,0.7,1.41c7.92,2.68,13.24,10.1,13.24,18.45c0,8.34-5.31,15.76-13.21,18.46
	c-0.58,0.2-0.9,0.83-0.7,1.41c0.16,0.46,0.59,0.76,1.06,0.76c0.12,0,0.24-0.02,0.36-0.06c8.8-3,14.72-11.27,14.72-20.57
	C58,15.78,52.08,7.52,43.26,4.52L43.26,4.52z M43.26,4.52 M47.97,25.09c0-6.66-4.47-12.6-10.87-14.45
	c-0.59-0.17-1.21,0.17-1.38,0.76c-0.17,0.59,0.17,1.21,0.76,1.38c5.45,1.58,9.25,6.64,9.25,12.31c0,5.67-3.8,10.74-9.25,12.31
	c-0.59,0.17-0.94,0.79-0.76,1.38c0.14,0.49,0.58,0.81,1.07,0.81c0.1,0,0.21-0.02,0.31-0.04C43.5,37.69,47.97,31.74,47.97,25.09
	L47.97,25.09z M47.97,25.09"/>
</svg>
