<?xml version="1.0" encoding="utf-8"?>
<!-- Generator: Adobe Illustrator 24.3.0, SVG Export Plug-In . SVG Version: 6.00 Build 0)  -->
<svg version="1.1" id="Layer_1" xmlns="http://www.w3.org/2000/svg" xmlns:xlink="http://www.w3.org/1999/xlink" x="0px" y="0px"
	 viewBox="0 0 60.9 65.93" style="enable-background:new 0 0 60.9 65.93;" xml:space="preserve">
<path d="M19.28,27.09c-0.73,0.73-0.73,1.9,0,2.63l9.86,9.86c0.36,0.36,0.84,0.55,1.31,0.55c0.47,0,0.95-0.18,1.31-0.55l9.86-9.86
	c0.73-0.73,0.73-1.9,0-2.63c-0.73-0.73-1.9-0.73-2.63,0l-6.68,6.68V1.86c0-1.03-0.83-1.86-1.86-1.86s-1.86,0.83-1.86,1.86v31.91
	l-6.68-6.68C21.18,26.36,20,26.36,19.28,27.09L19.28,27.09z M19.28,27.09 M60.83,42.31l-6.47-23.4c-0.15-0.54-0.52-0.96-1.02-1.2
	l-0.18-0.08c-0.25-0.11-0.51-0.17-0.77-0.17H40.73c-1.03,0-1.86,0.83-1.86,1.86c0,1.03,0.83,1.86,1.86,1.86h10.41l5.47,19.79H42.15
	c-1.03,0-1.86,0.83-1.86,1.86v1.68c0,2.46-2,4.46-4.46,4.46H24.49c-2.46,0-4.46-2-4.46-4.46v-1.68c0-1.03-0.83-1.86-1.86-1.86H4.28
	l5.49-19.84h10.41c1.03,0,1.86-0.83,1.86-1.86c0-1.03-0.83-1.86-1.86-1.86H8.51c-0.26,0-0.52,0.06-0.77,0.16l-0.18,0.08
	c-0.5,0.23-0.88,0.66-1.02,1.2l-6.47,23.4C0.03,42.44,0,42.6,0,42.77v9.76c0,7.39,6.02,13.41,13.41,13.41h34.08
	c7.39,0,13.41-6.02,13.41-13.41v-9.72C60.9,42.63,60.88,42.46,60.83,42.31L60.83,42.31z M57.18,52.53c0,5.34-4.35,9.69-9.69,9.69
	H13.41c-5.34,0-9.69-4.35-9.69-9.69v-7.83h12.62c0.1,4.42,3.73,7.98,8.18,7.98h11.34c4.45,0,8.08-3.56,8.18-7.98h13.17v7.83H57.18z
	 M57.18,52.53"/>
</svg>
