<?xml version="1.0" encoding="utf-8"?>
<!-- Generator: Adobe Illustrator 24.3.0, SVG Export Plug-In . SVG Version: 6.00 Build 0)  -->
<svg version="1.1" id="Layer_1" xmlns="http://www.w3.org/2000/svg" xmlns:xlink="http://www.w3.org/1999/xlink" x="0px" y="0px"
	 viewBox="0 0 63.72 42.61" style="enable-background:new 0 0 63.72 42.61;" xml:space="preserve">
<path d="M60.27,0H27.21c-0.52,0-0.94,0.42-0.94,0.94c0,0.52,0.42,0.94,0.94,0.94h33.06c0.87,0,1.57,0.7,1.57,1.57v35.69
	c0,0.87-0.7,1.57-1.57,1.57H3.46c-0.87,0-1.57-0.7-1.57-1.57V3.46c0-0.87,0.7-1.57,1.57-1.57h19.36c0.52,0,0.94-0.42,0.94-0.94
	c0-0.52-0.42-0.94-0.94-0.94H3.46C1.55,0,0,1.55,0,3.46v35.69c0,1.91,1.55,3.46,3.46,3.46h56.81c1.91,0,3.46-1.55,3.46-3.46V3.46
	C63.72,1.55,62.17,0,60.27,0L60.27,0z M60.27,0 M8.2,28.78v4.65c0,0.52,0.42,0.94,0.94,0.94h22.37c0.52,0,0.94-0.42,0.94-0.94v-4.65
	c0-4.11-2.94-7.54-6.82-8.32c0.58-0.94,0.91-2.06,0.91-3.24v-2.77c0-3.43-2.79-6.22-6.22-6.22c-3.43,0-6.22,2.79-6.22,6.22v2.77
	c0,1.19,0.34,2.3,0.91,3.24C11.14,21.24,8.2,24.67,8.2,28.78L8.2,28.78z M15.99,14.45c0-2.39,1.95-4.34,4.34-4.34
	s4.34,1.94,4.34,4.34v2.77c0,2.39-1.95,4.34-4.34,4.34s-4.34-1.95-4.34-4.34V14.45z M16.59,22.19c1.04,0.79,2.34,1.25,3.74,1.25
	c1.4,0,2.7-0.47,3.74-1.25c3.59,0.05,6.5,2.99,6.5,6.6v3.71H10.09v-3.71C10.09,25.18,12.99,22.24,16.59,22.19L16.59,22.19z
	 M16.59,22.19 M5.22,28.36c-0.52,0-0.94,0.42-0.94,0.94v8.09c0,0.52,0.42,0.94,0.94,0.94h53.29c0.52,0,0.94-0.42,0.94-0.94V5.22
	c0-0.52-0.42-0.94-0.94-0.94H5.22c-0.52,0-0.94,0.42-0.94,0.94v19.69c0,0.52,0.42,0.94,0.94,0.94c0.52,0,0.94-0.42,0.94-0.94V6.16
	h51.4v30.29H6.16V29.3C6.16,28.78,5.74,28.36,5.22,28.36L5.22,28.36z M5.22,28.36 M40.12,23.13c0.14,0,0.29-0.03,0.42-0.1l9.05-4.52
	c0.32-0.16,0.52-0.49,0.52-0.84c0-0.36-0.2-0.68-0.52-0.84l-9.05-4.52c-0.29-0.15-0.64-0.13-0.92,0.04
	c-0.28,0.17-0.45,0.48-0.45,0.8v9.05c0,0.33,0.17,0.63,0.45,0.8C39.78,23.08,39.95,23.13,40.12,23.13L40.12,23.13z M41.07,14.66l6,3
	l-6,3V14.66z M41.07,14.66 M37.96,26.46v0.57h-3.08c-0.52,0-0.94,0.42-0.94,0.94c0,0.52,0.42,0.94,0.94,0.94h3.08v0.57
	c0,0.52,0.42,0.94,0.94,0.94c0.52,0,0.94-0.42,0.94-0.94v-0.57h14.39c0.52,0,0.94-0.42,0.94-0.94c0-0.52-0.42-0.94-0.94-0.94H39.84
	v-0.57c0-0.52-0.42-0.94-0.94-0.94C38.38,25.51,37.96,25.94,37.96,26.46L37.96,26.46z M37.96,26.46"/>
</svg>
