<?xml version="1.0" encoding="utf-8"?>
<!-- Generator: Adobe Illustrator 24.3.0, SVG Export Plug-In . SVG Version: 6.00 Build 0)  -->
<svg version="1.1" id="Layer_1" xmlns="http://www.w3.org/2000/svg" xmlns:xlink="http://www.w3.org/1999/xlink" x="0px" y="0px"
	 viewBox="0 0 40.59 40.59" style="enable-background:new 0 0 40.59 40.59;" xml:space="preserve">
<path d="M40.04,35.12c0.37,0.37,0.55,0.82,0.55,1.35c0,0.53-0.19,0.98-0.55,1.35l-2.22,2.22c-0.37,0.37-0.82,0.56-1.35,0.56
	c-0.53,0-0.98-0.19-1.35-0.56l-7.93-7.93c-0.37-0.37-0.56-0.82-0.56-1.35v-1.27c-2.96,2.33-6.34,3.49-10.15,3.49
	c-4.55,0-8.43-1.61-11.65-4.84C1.61,24.92,0,21.04,0,16.49c0-4.54,1.61-8.43,4.84-11.65C8.06,1.61,11.94,0,16.49,0
	c4.54,0,8.43,1.61,11.65,4.84c3.22,3.22,4.84,7.11,4.84,11.65c0,3.81-1.16,7.19-3.49,10.15h1.27c0.53,0,0.98,0.19,1.35,0.56
	L40.04,35.12z M9.32,23.66c1.98,1.98,4.37,2.97,7.17,2.97c2.8,0,5.19-0.99,7.17-2.97s2.97-4.37,2.97-7.17c0-2.8-0.99-5.19-2.97-7.17
	c-1.98-1.98-4.37-2.97-7.17-2.97c-2.8,0-5.19,0.99-7.17,2.97c-1.98,1.98-2.97,4.37-2.97,7.17C6.34,19.29,7.33,21.68,9.32,23.66z"/>
</svg>
