<?xml version="1.0" encoding="utf-8"?>
<!-- Generator: Adobe Illustrator 24.3.0, SVG Export Plug-In . SVG Version: 6.00 Build 0)  -->
<svg version="1.1" id="Layer_1" xmlns="http://www.w3.org/2000/svg" xmlns:xlink="http://www.w3.org/1999/xlink" x="0px" y="0px"
	 viewBox="0 0 24 24" style="enable-background:new 0 0 24 24;" xml:space="preserve">
<path d="M22.19,20.18c0.28,0.33,0.28,0.81,0,1.13l-1.9,2.15c-0.02,0.03-0.05,0.06-0.08,0.08c-0.28,0.23-0.69,0.2-0.93-0.08
	l-7.27-8.18l-7.27,8.18c-0.02,0.03-0.05,0.06-0.08,0.08c-0.28,0.23-0.69,0.2-0.93-0.08l-1.91-2.15c-0.28-0.33-0.28-0.81,0-1.13
	L9.08,12L1.81,3.82c-0.28-0.33-0.28-0.81,0-1.13l1.91-2.15C3.75,0.51,3.78,0.48,3.8,0.45c0.28-0.23,0.69-0.2,0.93,0.08L12,8.71
	l7.27-8.18c0.02-0.03,0.05-0.06,0.08-0.08c0.28-0.23,0.69-0.2,0.93,0.08l1.91,2.15c0.28,0.33,0.28,0.81,0,1.13L14.92,12L22.19,20.18
	z"/>
</svg>
