<?xml version="1.0" encoding="utf-8"?>
<!-- Generator: Adobe Illustrator 24.3.0, SVG Export Plug-In . SVG Version: 6.00 Build 0)  -->
<svg version="1.1" id="Layer_1" xmlns="http://www.w3.org/2000/svg" xmlns:xlink="http://www.w3.org/1999/xlink" x="0px" y="0px"
	 viewBox="0 0 61.73 42.82" style="enable-background:new 0 0 61.73 42.82;" xml:space="preserve">
<path d="M17.3,36.08c0.39,0.39,0.39,1.03-0.01,1.41c-0.39,0.39-1.03,0.39-1.41-0.01c-4.09-4.12-6.62-9.84-6.62-16.08
	c0-6.24,2.53-11.9,6.62-15.98c0.39-0.39,1.02-0.39,1.41,0c0.39,0.39,0.39,1.02,0,1.41c-3.73,3.73-6.03,8.88-6.04,14.57
	C11.26,27.1,13.57,32.32,17.3,36.08z M10.16,41.12C5.12,36.07,2,29.11,2,21.41c0-7.7,3.12-14.66,8.16-19.7
	c0.39-0.39,0.39-1.02,0-1.41c-0.39-0.39-1.02-0.39-1.41,0C3.34,5.69,0,13.17,0,21.41c0,8.24,3.34,15.72,8.75,21.12
	c0.39,0.39,1.02,0.39,1.41,0S10.55,41.51,10.16,41.12L10.16,41.12z M28.84,27.06l6.49-5.64l-6.49-5.64V27.06z M6.6,21.41
	c0-6.7,2.71-12.76,7.11-17.16c0.39-0.39,0.39-1.02,0-1.41c-0.39-0.39-1.02-0.39-1.41,0C7.54,7.59,4.6,14.16,4.6,21.41
	c0,7.25,2.94,13.82,7.69,18.57c0.39,0.39,1.02,0.39,1.41,0c0.39-0.39,0.39-1.02,0-1.41C9.32,34.17,6.6,28.12,6.6,21.41z M52.98,0.29
	c-0.39-0.39-1.02-0.39-1.41,0c-0.39,0.39-0.39,1.02,0,1.41c5.05,5.05,8.16,12.01,8.16,19.7c0,7.7-3.12,14.66-8.16,19.7
	c-0.39,0.39-0.39,1.02,0,1.41c0.39,0.39,1.02,0.39,1.41,0c5.4-5.4,8.75-12.87,8.75-21.12C61.73,13.17,58.39,5.69,52.98,0.29z
	 M49.44,2.84c-0.39-0.39-1.02-0.39-1.41,0s-0.39,1.02,0,1.41l0,0c4.39,4.39,7.11,10.45,7.11,17.16c0,6.7-2.71,12.76-7.11,17.16
	c-0.39,0.39-0.39,1.02,0,1.41c0.39,0.39,1.02,0.39,1.41,0c4.75-4.75,7.69-11.32,7.69-18.57C57.13,14.16,54.19,7.59,49.44,2.84z
	 M52.47,21.39c-0.11-6.21-2.52-11.87-6.62-15.97c-0.39-0.39-1.02-0.39-1.41,0s-0.39,1.02,0,1.41l0,0c3.72,3.72,5.93,8.87,6.04,14.59
	c0,0.13,0,0.26,0,0.39c0,5.47-2.18,10.39-5.79,14.02c-0.39,0.39-0.39,1.02,0,1.41c0.39,0.39,1.02,0.39,1.41,0
	c3.97-3.98,6.38-9.42,6.37-15.43C52.48,21.68,52.47,21.53,52.47,21.39z M40.85,31.32H20.88c-2.89,0-5.24-2.35-5.24-5.24v-9.34
	c0-2.89,2.35-5.24,5.24-5.24h19.98c2.89,0,5.24,2.35,5.24,5.24v9.34C46.09,28.97,43.75,31.32,40.85,31.32z M44.19,16.74
	c0-1.84-1.49-3.34-3.34-3.34H20.88c-1.84,0-3.34,1.5-3.34,3.34v9.34c0,1.84,1.49,3.34,3.34,3.34h19.98c1.84,0,3.34-1.5,3.34-3.34
	V16.74z"/>
</svg>
