<?xml version="1.0" encoding="utf-8"?>
<!-- Generator: Adobe Illustrator 24.3.0, SVG Export Plug-In . SVG Version: 6.00 Build 0)  -->
<svg version="1.1" id="Layer_1" xmlns="http://www.w3.org/2000/svg" xmlns:xlink="http://www.w3.org/1999/xlink" x="0px" y="0px"
	 viewBox="0 0 82.23 59.21" style="enable-background:new 0 0 82.23 59.21;" xml:space="preserve">
<path id="Media_Gallery_2_" d="M78.12,0H4.11C1.84,0,0,1.84,0,4.11v50.98c0,2.27,1.84,4.11,4.11,4.11h74.01
	c2.27,0,4.11-1.84,4.11-4.11V4.11C82.23,1.84,80.39,0,78.12,0z M55.16,30.98l-23.02,14.8c-0.26,0.16-0.59,0.26-0.89,0.26
	c-0.26,0-0.53-0.07-0.79-0.2c-0.53-0.3-0.86-0.86-0.86-1.45V14.8c0-0.59,0.33-1.15,0.86-1.45c0.53-0.3,1.18-0.26,1.68,0.07
	l23.02,14.8c0.46,0.3,0.76,0.82,0.76,1.38S55.62,30.69,55.16,30.98z"/>
</svg>
