<?xml version="1.0" encoding="utf-8"?>
<!-- Generator: Adobe Illustrator 24.3.0, SVG Export Plug-In . SVG Version: 6.00 Build 0)  -->
<svg version="1.1" id="Layer_1" xmlns="http://www.w3.org/2000/svg" xmlns:xlink="http://www.w3.org/1999/xlink" x="0px" y="0px"
	 viewBox="0 0 57.28 53.46" style="enable-background:new 0 0 57.28 53.46;" xml:space="preserve">
<path d="M35.32,12.41c0.53,0,0.95-0.43,0.95-0.95V4.77c0-0.53-0.43-0.95-0.95-0.95H4.77c-0.53,0-0.95,0.43-0.95,0.95v21
	c0,0.53,0.43,0.95,0.95,0.95h30.55c0.53,0,0.95-0.43,0.95-0.95v-10.5c0-0.53-0.43-0.95-0.95-0.95s-0.95,0.43-0.95,0.95v9.55H21V21
	c0-1.78-1.24-3.32-2.97-3.71c1.16-1.43,1.39-3.4,0.59-5.06c-0.79-1.66-2.47-2.72-4.31-2.72c-1.84,0-3.51,1.06-4.31,2.72
	c-0.79,1.66-0.56,3.63,0.59,5.06c-1.73,0.4-2.96,1.94-2.97,3.71v3.82H5.73V5.73h28.64v5.73C34.37,11.98,34.8,12.41,35.32,12.41
	L35.32,12.41z M14.32,11.46c1.16,0,2.2,0.7,2.65,1.77c0.44,1.07,0.2,2.3-0.62,3.12c-0.82,0.82-2.05,1.06-3.12,0.62
	c-1.07-0.44-1.77-1.49-1.77-2.65C11.46,12.74,12.74,11.46,14.32,11.46L14.32,11.46z M9.55,21c0-1.05,0.85-1.91,1.91-1.91h5.73
	c1.05,0,1.91,0.85,1.91,1.91v3.82H9.55V21z M9.55,21 M39.14,13.37h7.64c0.53,0,0.95-0.43,0.95-0.95V4.77c0-0.53-0.43-0.95-0.95-0.95
	h-7.64c-0.53,0-0.95,0.43-0.95,0.95v7.64C38.19,12.94,38.62,13.37,39.14,13.37L39.14,13.37z M40.1,5.73h5.73v5.73H40.1V5.73z
	 M40.1,5.73 M50.6,7.64h1.91c0.53,0,0.95-0.43,0.95-0.95s-0.43-0.95-0.95-0.95H50.6c-0.53,0-0.95,0.43-0.95,0.95
	S50.07,7.64,50.6,7.64L50.6,7.64z M50.6,7.64 M50.6,11.46h1.91c0.53,0,0.95-0.43,0.95-0.95c0-0.53-0.43-0.95-0.95-0.95H50.6
	c-0.53,0-0.95,0.43-0.95,0.95C49.65,11.03,50.07,11.46,50.6,11.46L50.6,11.46z M50.6,11.46 M38.19,23.87c0,0.53,0.43,0.95,0.95,0.95
	h7.64c0.53,0,0.95-0.43,0.95-0.95c0-0.53-0.43-0.95-0.95-0.95H40.1v-5.73h5.73v2.86c0,0.53,0.43,0.95,0.95,0.95s0.95-0.43,0.95-0.95
	v-3.82c0-0.53-0.43-0.95-0.95-0.95h-7.64c-0.53,0-0.95,0.43-0.95,0.95V23.87z M38.19,23.87 M50.6,19.09h1.91
	c0.53,0,0.95-0.43,0.95-0.95s-0.43-0.95-0.95-0.95H50.6c-0.53,0-0.95,0.43-0.95,0.95S50.07,19.09,50.6,19.09L50.6,19.09z
	 M50.6,19.09 M50.6,22.91h1.91c0.53,0,0.95-0.43,0.95-0.95S53.04,21,52.51,21H50.6c-0.53,0-0.95,0.43-0.95,0.95
	S50.07,22.91,50.6,22.91L50.6,22.91z M50.6,22.91 M38.19,35.32c0,0.53,0.43,0.95,0.95,0.95h7.64c0.53,0,0.95-0.43,0.95-0.95v-7.64
	c0-0.53-0.43-0.95-0.95-0.95h-7.64c-0.53,0-0.95,0.43-0.95,0.95V35.32z M40.1,28.64h5.73v5.73H40.1V28.64z M40.1,28.64 M50.6,30.55
	h1.91c0.53,0,0.95-0.43,0.95-0.95c0-0.53-0.43-0.95-0.95-0.95H50.6c-0.53,0-0.95,0.43-0.95,0.95C49.65,30.12,50.07,30.55,50.6,30.55
	L50.6,30.55z M50.6,30.55 M50.6,34.37h1.91c0.53,0,0.95-0.43,0.95-0.95s-0.43-0.95-0.95-0.95H50.6c-0.53,0-0.95,0.43-0.95,0.95
	S50.07,34.37,50.6,34.37L50.6,34.37z M50.6,34.37 M25.78,30.55c0.53,0,0.95-0.43,0.95-0.95c0-0.53-0.43-0.95-0.95-0.95H9.55
	c-0.53,0-0.95,0.43-0.95,0.95c0,0.53,0.43,0.95,0.95,0.95H25.78z M25.78,30.55 M4.77,33.42c0,0.53,0.43,0.95,0.95,0.95h11.46
	c0.53,0,0.95-0.43,0.95-0.95s-0.43-0.95-0.95-0.95H5.73C5.2,32.46,4.77,32.89,4.77,33.42L4.77,33.42z M4.77,33.42 M5.73,38.19H29.6
	c0.53,0,0.95-0.43,0.95-0.95s-0.43-0.95-0.95-0.95H5.73c-0.53,0-0.95,0.43-0.95,0.95S5.2,38.19,5.73,38.19L5.73,38.19z M5.73,38.19
	 M28.64,15.28c0-0.36-0.2-0.69-0.53-0.85l-5.73-2.86c-0.3-0.15-0.65-0.13-0.93,0.04c-0.28,0.17-0.45,0.48-0.45,0.81v5.73
	c0,0.33,0.17,0.64,0.45,0.81c0.15,0.09,0.33,0.14,0.51,0.14c0.15,0,0.3-0.04,0.43-0.11l5.73-2.86
	C28.44,15.96,28.64,15.63,28.64,15.28L28.64,15.28z M22.91,16.59v-2.64l2.63,1.32L22.91,16.59z M22.91,16.59 M23.87,22.91h7.64
	c0.53,0,0.95-0.43,0.95-0.95V8.59c0-0.53-0.43-0.95-0.95-0.95H19.09c-0.53,0-0.95,0.43-0.95,0.95c0,0.53,0.43,0.95,0.95,0.95h11.46
	V21h-6.68c-0.53,0-0.95,0.43-0.95,0.95S23.34,22.91,23.87,22.91L23.87,22.91z M23.87,22.91 M56.33,32.46
	c-0.53,0-0.95,0.43-0.95,0.95v5.73c0,0.53-0.43,0.95-0.95,0.95H2.86c-0.53,0-0.95-0.43-0.95-0.95V14.32c0-0.53-0.43-0.95-0.95-0.95
	S0,13.79,0,14.32v24.82c0,1.58,1.28,2.86,2.86,2.86h17.55l-2.86,5.73h-6.09c-0.53,0-0.95,0.43-0.95,0.95s0.43,0.95,0.95,0.95h34.37
	c0.53,0,0.95,0.43,0.95,0.95v0.95H9.55c-0.53,0-0.95,0.43-0.95,0.95s0.43,0.95,0.95,0.95h38.19c0.53,0,0.95-0.43,0.95-0.95V50.6
	c0-1.58-1.28-2.86-2.86-2.86h-6.09l-2.86-5.73h17.55c1.58,0,2.86-1.28,2.86-2.86v-5.73C57.28,32.89,56.86,32.46,56.33,32.46
	L56.33,32.46z M37.6,47.74H19.69l2.86-5.73h12.18L37.6,47.74z M37.6,47.74 M54.42,0H2.86C1.28,0,0,1.28,0,2.86v7.64
	c0,0.53,0.43,0.95,0.95,0.95s0.95-0.43,0.95-0.95V2.86c0-0.53,0.43-0.95,0.95-0.95h51.56c0.53,0,0.95,0.43,0.95,0.95V29.6
	c0,0.53,0.43,0.95,0.95,0.95c0.53,0,0.95-0.43,0.95-0.95V2.86C57.28,1.28,56,0,54.42,0L54.42,0z M54.42,0"/>
</svg>
